<?xml version="1.0" encoding="iso-8859-1"?>
<!-- Generator: Adobe Illustrator 19.0.0, SVG Export Plug-In . SVG Version: 6.00 Build 0)  -->
<svg version="1.1" id="Capa_1" xmlns="http://www.w3.org/2000/svg" xmlns:xlink="http://www.w3.org/1999/xlink" x="0px" y="0px"
	 viewBox="0 0 512 512" style="enable-background:new 0 0 512 512;" xml:space="preserve">
<g>
	<g>
		<path d="M231.743,166.534c-23.742,0-43.058,19.317-43.058,43.059c0,23.748,19.316,43.069,43.058,43.069
			c23.748,0,43.069-19.321,43.069-43.069C274.812,185.851,255.491,166.534,231.743,166.534z M231.743,232.6
			c-12.68,0-22.996-10.321-22.996-23.007c0-12.68,10.316-22.997,22.996-22.997c12.686,0,23.007,10.317,23.007,22.997
			C254.75,222.278,244.429,232.6,231.743,232.6z"/>
	</g>
</g>
<g>
	<g>
		<path d="M443.014,123.526c0-16.169-13.15-29.324-29.313-29.324s-29.313,13.155-29.313,29.324c0,16.164,13.15,29.313,29.313,29.313
			c0.229,0,0.454-0.012,0.682-0.017c5.688,18.31,8.569,37.367,8.569,56.773c0,68.125-36.873,131.374-95.164,165.359v-33.954
			c41.878-30.631,66.722-79.355,66.722-131.408c0-89.745-73.017-162.757-162.768-162.757
			c-89.744-0.001-162.756,73.011-162.756,162.756c0,52.04,24.844,100.764,66.722,131.413v68.743v37.711h-25.291
			c-5.54,0-10.031,4.491-10.031,10.031v44.478c0,5.54,4.491,10.031,10.031,10.031H353.08c5.54,0,10.031-4.491,10.031-10.031v-44.478
			c0-5.54-4.491-10.031-10.031-10.031h-25.291v-37.711v-11.946c33.153-16.942,61.262-42.319,81.551-73.731
			c22.03-34.109,33.675-73.694,33.675-114.477c0-21.925-3.339-43.453-9.918-64.117C439.172,140.103,443.014,132.257,443.014,123.526
			z M343.049,467.522v24.415H120.448v-24.415h25.291h172.019H343.049z M307.727,419.779v27.68H155.77v-27.68H307.727z
			 M155.77,399.718v-46.148c23.312,12.332,49.249,18.781,75.973,18.781c26.73,0,52.671-6.45,75.984-18.782v46.149H155.77z
			 M312.105,327.524c-0.114,0.078-0.226,0.158-0.335,0.239c-23.656,16.047-51.318,24.526-80.026,24.526
			c-28.813,0-56.578-8.547-80.292-24.715c-0.058-0.04-0.116-0.081-0.176-0.121c-38.967-26.665-62.228-70.712-62.228-117.859
			c0-78.683,64.013-142.695,142.695-142.695c78.688,0,142.705,64.013,142.705,142.695
			C374.45,256.799,351.143,300.886,312.105,327.524z M413.701,132.777c-5.102,0-9.252-4.15-9.252-9.252
			c0-5.107,4.151-9.262,9.252-9.262c5.101,0,9.252,4.155,9.252,9.262C422.952,128.626,418.802,132.777,413.701,132.777z"/>
	</g>
</g>
<g>
	<g>
		<path d="M318.044,136.306c-3.588-4.221-9.918-4.734-14.14-1.147c-4.221,3.588-4.735,9.919-1.147,14.14
			c14.28,16.799,22.144,38.213,22.144,60.296c0,5.54,4.491,10.031,10.031,10.031s10.031-4.491,10.031-10.031
			C344.964,182.755,335.403,156.727,318.044,136.306z"/>
	</g>
</g>
<g>
	<g>
		<path d="M387.75,1.228c-5.095-2.178-10.989,0.19-13.166,5.283l-10.309,24.131c-2.177,5.095,0.189,10.989,5.283,13.166
			c1.286,0.55,2.621,0.81,3.936,0.81c3.896,0,7.602-2.283,9.229-6.093l10.309-24.131C395.21,9.298,392.844,3.404,387.75,1.228z"/>
	</g>
</g>
<g>
	<g>
		<path d="M344.241,30.65l-9.773-24.352c-2.064-5.141-7.903-7.637-13.045-5.573c-5.141,2.063-7.637,7.904-5.573,13.045l9.773,24.352
			c1.572,3.916,5.335,6.297,9.313,6.297c1.244,0,2.508-0.233,3.733-0.724C343.809,41.632,346.305,35.791,344.241,30.65z"/>
	</g>
</g>
<g>
	<g>
		<path d="M434.292,48.484c-2.063-5.142-7.907-7.638-13.045-5.573l-24.352,9.774c-5.141,2.063-7.637,7.903-5.573,13.045
			c1.572,3.916,5.336,6.297,9.313,6.297c1.244,0,2.508-0.233,3.733-0.724l24.352-9.774C433.86,59.466,436.356,53.626,434.292,48.484
			z"/>
	</g>
</g>
<g>
	<g>
		<path d="M286.765,110.773c-12.91,0-12.931,20.062,0,20.062C299.674,130.835,299.695,110.773,286.765,110.773z"/>
	</g>
</g>
<g>
</g>
<g>
</g>
<g>
</g>
<g>
</g>
<g>
</g>
<g>
</g>
<g>
</g>
<g>
</g>
<g>
</g>
<g>
</g>
<g>
</g>
<g>
</g>
<g>
</g>
<g>
</g>
<g>
</g>
</svg>
