<svg id="Layer_1" enable-background="new 0 0 512 512" height="512" viewBox="0 0 512 512" width="512" xmlns="http://www.w3.org/2000/svg"><path d="m7.5 349.593 40.704-2.449 206.326-39.108-17.802-93.918 17.797-8.781 204.96 45.731h45.015v233.432c0 11.046-8.954 20-20 20h-457c-11.046 0-20-8.954-20-20z" fill="#bf6724"/><path d="m474.5 251.068v233.432c0 11.046-8.954 20-20 20h30c11.046 0 20-8.954 20-20v-233.432z" fill="#a35418"/><path d="m256 7.5v.04l-.03-.02z" fill="#e6e6e6"/><path d="m33.89 194.762h210v134h-210z" fill="#f5f5f5" transform="matrix(.983 -.186 .186 .983 -46.318 30.444)"/><path d="m212.315 178.002h30v134h-30z" fill="#e6e6e6" transform="matrix(.983 -.186 .186 .983 -41.65 46.619)"/><path d="m239.438 174.511-226.057 42.848c-4.721.895-7.81-4.734-4.498-8.197l97.696-102.164c1.468-1.535 3.757-1.969 5.684-1.078l128.361 59.316c4.35 2.01 3.535 8.38-1.186 9.275z" fill="#ff7043"/><path d="m240.624 165.236-128.361-59.316c-1.928-.891-4.217-.457-5.684 1.078l-10.282 10.752 114.852 53.073c4.35 2.01 3.535 8.38-1.186 9.275l29.475-5.587c4.721-.895 5.536-7.265 1.186-9.275z" fill="#ff5722"/><path d="m68.774 246.758h60v90h-60z" fill="#ffca28" transform="matrix(.983 -.186 .186 .983 -52.606 23.498)"/><path d="m159.152 229.814h54.283v50.102h-54.283z" fill="#80deea" transform="matrix(.983 -.186 .186 .983 -44.204 39.152)"/><circle cx="118.521" cy="154.3" fill="#80deea" r="16"/><path d="m266.596 95.811h210v134h-210z" fill="#f5f5f5" transform="matrix(.976 .218 -.218 .976 44.373 -77.014)"/><path d="m392.436 167.41h134v30h-134z" fill="#e6e6e6" transform="matrix(.218 -.976 .976 .218 181.354 591.097)"/><path d="m498.464 122.47-224.561-50.104c-4.689-1.046-5.299-7.438-.888-9.308l130.15-55.164c1.955-.829 4.229-.321 5.647 1.259l94.411 105.269c3.199 3.567-.069 9.095-4.759 8.048z" fill="#ff7043"/><path d="m503.223 114.422-94.411-105.269c-1.418-1.581-3.692-2.088-5.647-1.259l-13.697 5.805 84.475 94.19c3.199 3.567-.069 9.095-4.759 8.048l29.28 6.533c4.69 1.047 7.958-4.481 4.759-8.048z" fill="#ff5722"/><path d="m292.885 129.483h60v90h-60z" fill="#ffca28" transform="matrix(.976 .218 -.218 .976 45.746 -66.126)"/><path d="m390.718 150.184h54.283v50.102h-54.283z" fill="#80deea" transform="matrix(.976 .218 -.218 .976 48.189 -86.791)"/><circle cx="395.414" cy="56.061" fill="#80deea" r="16"/><path d="m254.53 308.036 35.814 62.424 21.271 134.04s26.392 0 22.671 0 21.693-149.581 21.693-149.581l-41.32-88.07-60.133-61.511-17.797 8.781z" fill="#8c4815"/><g fill="#d4d4d4"><circle cx="96.184" cy="417.56" r="21"/><circle cx="453.74" cy="448.467" r="21"/><circle cx="398" cy="295" r="16"/></g><path d="m504.5 243.569h-35.656l25.51-114.331 2.477.553c5.31 1.185 10.716-1.166 13.455-5.844 2.729-4.662 2.135-10.501-1.479-14.531l-29.716-33.133c-2.767-3.083-7.508-3.341-10.591-.576-3.084 2.766-3.342 7.507-.576 10.591l24.303 27.098-208.823-46.594 121.028-51.299 42.141 46.987c2.766 3.083 7.508 3.341 10.591.576 3.084-2.766 3.342-7.507.576-10.591l-43.345-48.33c-3.559-3.968-9.249-5.235-14.156-3.156l-130.15 55.165c-4.983 2.112-8.002 7.145-7.513 12.524.491 5.4 4.387 9.824 9.694 11.008l2.483.554-26.766 119.96-5.728 2.826-3.919-20.673 2.493-.473c5.343-1.013 9.38-5.31 10.044-10.691.662-5.361-2.195-10.489-7.109-12.76l-128.358-59.316c-4.839-2.238-10.566-1.151-14.252 2.702l-97.696 102.164c-3.741 3.912-4.521 9.729-1.943 14.476 2.625 4.832 7.994 7.273 13.259 6.273l2.5-.474 5.522 29.136c.771 4.069 4.687 6.741 8.766 5.972 4.069-.771 6.743-4.696 5.972-8.766l-5.522-29.135 191.589-36.314 22.161 116.918-103.163 19.554-15.364-81.056c-.37-1.955-1.502-3.682-3.146-4.802-1.643-1.12-3.666-1.541-5.619-1.17l-58.95 11.174c-4.07.771-6.744 4.696-5.972 8.765l15.364 81.057-14.738 2.794-10.573-55.783c-.771-4.07-4.694-6.745-8.765-5.972-4.07.771-6.744 4.696-5.972 8.765l10.383 54.78-32.201 1.936c-3.96.238-7.05 3.519-7.05 7.486v154.907c0 4.142 3.358 7.5 7.5 7.5h497c4.142 0 7.5-3.358 7.5-7.5v-253.431c0-4.142-3.358-7.5-7.5-7.5zm-393.747-130.084 119.366 55.159c-7.446 1.411-181.229 34.351-210.215 39.845zm368.96 12.487-25.914 116.144-102.48-22.865 17.966-80.52c.902-4.041-1.644-8.051-5.687-8.953l-58.56-13.066c-4.045-.906-8.051 1.644-8.953 5.687l-17.966 80.52-14.641-3.267 25.914-116.144c41.005 9.148 154.296 34.426 190.321 42.464zm-186.954 80.212 16.333-73.2 43.92 9.8-6.854 30.719-2.44-.544c-4.043-.903-8.051 1.644-8.953 5.687-.902 4.042 1.644 8.051 5.687 8.953l2.44.544-6.212 27.842-13.978-3.119zm-223.075 52.92 44.212-8.38 5.861 30.923-2.456.465c-4.07.771-6.744 4.695-5.972 8.765.682 3.598 3.828 6.105 7.36 6.105.463 0 .933-.043 1.405-.133l2.456-.465 5.313 28.027-44.212 8.38zm248.335 237.896-7.569-47.693c-.649-4.091-4.491-6.882-8.583-6.232-4.091.649-6.881 4.492-6.232 8.583l7.196 45.342h-287.831v-140.345l33.654-2.024c.007 0 .015-.001.022-.002.067-.004.134-.009.201-.015.006 0 .012-.001.018-.001.07-.007.14-.014.21-.023.023-.003.045-.006.068-.009.05-.006.099-.013.149-.021.023-.004.046-.007.07-.011.07-.011.139-.023.209-.036l201.081-38.114 32.471 56.598 7.45 46.944c.649 4.091 4.492 6.887 8.583 6.232 4.091-.649 6.881-4.492 6.232-8.583l-7.666-48.305c-.143-.9-.448-1.767-.902-2.557l-35.186-61.329-10.561-55.717-5.944-31.361 7.807-3.851 55.443 56.713 39.785 84.797c-1.456 8.621-6.715 39.925-11.649 71.201-3.392 21.502-5.971 38.795-7.664 51.4-1.015 7.557-1.723 13.524-2.104 17.735-.021.232-.042.459-.061.682h-8.697zm178.981 0h-155.267c2.114-22.164 13.809-94.729 21.64-140.825.256-1.508.045-3.058-.604-4.442l-41.32-88.07c-.357-.761-.839-1.457-1.427-2.057l-42.474-43.447 180.305 40.229c.134.03.269.056.405.079.046.008.092.014.138.021.022.003.044.007.066.01.05.007.1.013.15.019.018.002.036.005.054.007.046.005.092.009.139.013.022.002.044.005.067.006.111.009.222.015.332.019.094.004.189.006.283.006h37.513z"/><path d="m164.284 292.033c.463 0 .933-.043 1.405-.133l53.333-10.109c1.955-.37 3.682-1.502 4.802-3.146s1.541-3.665 1.17-5.62l-9.331-49.225c-.771-4.069-4.695-6.745-8.765-5.972l-53.333 10.109c-1.955.37-3.682 1.502-4.802 3.146s-1.541 3.665-1.17 5.62l9.331 49.225c.681 3.598 3.827 6.105 7.36 6.105zm38.038-58.07 6.537 34.487-38.595 7.315-6.537-34.487z"/><path d="m141.61 149.924c-2.414-12.732-14.739-21.128-27.465-18.712-12.731 2.413-21.125 14.734-18.712 27.465 2.134 11.259 12.016 19.126 23.08 19.126 1.446 0 2.914-.134 4.385-.414 6.167-1.169 11.51-4.669 15.045-9.857 3.533-5.187 4.836-11.441 3.667-17.608zm-16.065 9.162c-1.278 1.876-3.211 3.143-5.441 3.565-4.607.867-9.062-2.164-9.935-6.768-.873-4.605 2.164-9.062 6.769-9.935.533-.101 1.063-.149 1.586-.149 4.001 0 7.576 2.846 8.348 6.917.423 2.232-.048 4.494-1.327 6.37z"/><path d="m384.281 201.094 52.98 11.821c.541.121 1.088.18 1.633.18 1.413 0 2.81-.399 4.021-1.169 1.679-1.066 2.866-2.756 3.299-4.698l10.91-48.899c.902-4.043-1.644-8.051-5.687-8.953l-52.979-11.821c-4.045-.905-8.052 1.644-8.953 5.687l-10.911 48.899c-.434 1.941-.078 3.976.989 5.654 1.067 1.679 2.757 2.866 4.698 3.299zm18.231-47.266 38.34 8.555-7.644 34.259-38.34-8.555z"/><path d="m400.532 33.125c-6.126-1.367-12.418-.266-17.717 3.099s-8.97 8.593-10.336 14.719c-1.367 6.126-.267 12.418 3.099 17.717 3.365 5.299 8.593 8.97 14.719 10.336 1.717.383 3.446.572 5.164.572 4.411 0 8.74-1.249 12.554-3.671 5.298-3.365 8.969-8.593 10.336-14.719s.267-12.418-3.099-17.717c-3.366-5.298-8.594-8.969-14.72-10.336zm3.178 24.787c-.495 2.216-1.822 4.107-3.739 5.324s-4.191 1.615-6.408 1.121c-2.216-.495-4.107-1.822-5.324-3.739s-1.615-4.193-1.121-6.409c.495-2.216 1.822-4.106 3.739-5.324 1.379-.876 2.945-1.328 4.541-1.328.621 0 1.247.069 1.868.207 2.216.495 4.107 1.822 5.324 3.739s1.615 4.193 1.12 6.409z"/><path d="m96.184 389.06c-15.715 0-28.5 12.785-28.5 28.5s12.785 28.5 28.5 28.5 28.5-12.785 28.5-28.5-12.786-28.5-28.5-28.5zm0 42c-7.444 0-13.5-6.056-13.5-13.5s6.056-13.5 13.5-13.5 13.5 6.056 13.5 13.5-6.057 13.5-13.5 13.5z"/><path d="m425.24 448.467c0 15.715 12.785 28.5 28.5 28.5s28.5-12.785 28.5-28.5-12.785-28.5-28.5-28.5-28.5 12.785-28.5 28.5zm42 0c0 7.444-6.056 13.5-13.5 13.5s-13.5-6.056-13.5-13.5 6.056-13.5 13.5-13.5 13.5 6.056 13.5 13.5z"/><path d="m398 271.5c-12.958 0-23.5 10.542-23.5 23.5s10.542 23.5 23.5 23.5 23.5-10.542 23.5-23.5-10.542-23.5-23.5-23.5zm0 32c-4.687 0-8.5-3.813-8.5-8.5s3.813-8.5 8.5-8.5 8.5 3.813 8.5 8.5-3.813 8.5-8.5 8.5z"/></svg>