<svg height="480pt" viewBox="0 0 480.09544 480" width="480pt" xmlns="http://www.w3.org/2000/svg"><path d="m336.046875 240.007812v-199.28125c-20.386719-3.585937-40.753906 6.402344-50.398437 24.71875-4.46875-.964843-9.027344-1.449218-13.601563-1.4375-2.78125-.015624-5.5625.167969-8.320313.558594 13.546876 23.84375 10.324219 53.675782-8 74.078125 22.148438 7.664063 35.519532 30.199219 31.640626 53.3125-3.882813 23.109375-23.886719 40.039063-47.320313 40.050781-8.949219.03125-17.71875-2.496093-25.277344-7.28125-5.484375 4.753907-11.5 8.859376-17.921875 12.238282 8.054688 16.523437 24.816406 27.015625 43.199219 27.042968 8.949219.03125 17.71875-2.496093 25.28125-7.28125 13.269531 11.453126 29.429687 19.035157 46.71875 21.917969v-38.636719zm0 0" fill="#9cdb08"/><path d="m441.886719 179.445312c9.414062-19.832031 8.003906-43.101562-3.730469-61.652343s-32.15625-29.792969-54.109375-29.785157c-2.671875-.003906-5.34375.15625-8 .476563v-.476563c-.023437-23.40625-16.921875-43.382812-40-47.28125v199.28125h24v34.558594c10.875-3.824218 20.957031-9.597656 29.761719-17.039062 8.964844 9.285156 21.332031 14.515625 34.238281 14.480468 23.007813-.003906 42.777344-16.328124 47.128906-38.917968 4.355469-22.589844-7.929687-45.089844-29.289062-53.644532zm0 0" fill="#b2fa09"/><path d="m312.046875 240.007812v160h24v-160zm0 0" fill="#946d46"/><path d="m336.046875 240.007812v160h24v-160zm0 0" fill="#a97c50"/><path d="m128.046875 200.007812v192h24v-192zm0 0" fill="#7a5235"/><path d="m176.046875 200.007812h-24v192h24zm0 0" fill="#8b5e3c"/><path d="m128.046875 200.007812h24v-192c-26.507813 0-48 21.488282-48 48v.476563c-2.652344-.320313-5.324219-.480469-8-.476563-21.949219-.007812-42.375 11.234376-54.109375 29.785157s-13.140625 41.820312-3.730469 61.652343c-21.355469 8.554688-33.640625 31.054688-29.289062 53.644532 4.355469 22.589844 24.125 38.914062 47.128906 38.917968 12.910156.035157 25.277344-5.195312 34.242187-14.480468 10.972657 9.238281 23.875 15.910156 37.757813 19.519531zm0 0" fill="#529720"/><path d="m255.726562 138.644531c18.484376-20.675781 21.546876-50.902343 7.589844-74.867187-13.960937-23.964844-41.765625-36.210938-68.867187-30.332032-8.359375-15.648437-24.65625-25.429687-42.402344-25.4375v192h24v44.957032c14.304687-3.644532 27.5625-10.574219 38.722656-20.238282 7.558594 4.785157 16.328125 7.3125 25.277344 7.28125 23.433594-.011718 43.4375-16.941406 47.320313-40.050781 3.878906-23.113281-9.492188-45.648437-31.640626-53.3125zm0 0" fill="#5eac24"/><path d="m152.046875 328.007812s-4.800781 4-11.757813 10.398438c-16.015624 14.152344-30.46875 29.976562-43.121093 47.199219-11.578125-20.632813-25.367188-39.949219-41.121094-57.597657 0 0-48 69.519532-48 96 .023437 21.160157 13.90625 39.8125 34.167969 45.910157 20.265625 6.097656 42.132812-1.796875 53.832031-19.433594 10.46875 15.796875 29.25 23.957031 47.941406 20.828125 18.6875-3.128906 33.789063-16.960938 38.539063-35.304688 8.074218 16.6875 23.035156 29.019532 40.960937 33.757813 10.835938 2.988281 22.28125 2.988281 33.121094 0 17.921875-4.738281 32.882813-17.070313 40.957031-33.757813 5.519532 21.160157 24.609375 35.945313 46.480469 36 16.089844-.046874 31.097656-8.121093 40-21.523437 11.699219 17.636719 33.566406 25.53125 53.832031 19.433594 20.265625-6.097657 34.144532-24.75 34.167969-45.910157 0-26.480468-16-112-16-112s-51.199219 44.558594-71.679687 75.839844c-5.253907-21.722656-18.4375-40.699218-36.960938-53.203125h-.078125c-3.644531-2.402343-7.410156-4.617187-11.28125-6.636719-7.957031 19.722657-19.480469 37.8125-34 53.359376-4.605469-11.710938-11.03125-22.617188-19.039063-32.320313-17.863281-22.003906-37.589843-42.425781-58.960937-61.039063-8.195313 18.484376-17.492187 36.460938-27.839844 53.839844-6.152343 10.382813-12.882812 20.410156-20.160156 30.039063-2.152344 2.808593-4.335937 5.597656-6.558594 8.199219-9.28125-25.121094-17.441406-52.078126-17.441406-52.078126zm0 0" fill="#ed1c24"/><g fill="#bd0022"><path d="m69.488281 344.085938c-14.160156 22.160156-37.441406 61.519531-37.441406 79.921874.007813 21.910157 14.855469 41.035157 36.082031 46.476563-3.949218 1-8.007812 1.507813-12.082031 1.523437-26.507813 0-48-21.492187-48-48 0-26.480468 48-96 48-96s5.839844 6.476563 13.441406 16.078126zm0 0"/><path d="m137.488281 466.324219c3.382813 1.832031 6.984375 3.230469 10.71875 4.160156-3.976562.992187-8.058593 1.503906-12.160156 1.523437-7.871094-.003906-15.625-1.953124-22.558594-5.683593-1.878906-.964844-3.671875-2.089844-5.359375-3.359375 4.660156-3.445313 8.691406-7.664063 11.917969-12.480469 4.410156 6.644531 10.402344 12.089844 17.441406 15.839844zm0 0"/><path d="m152.046875 328.007812s2.082031 6.878907 5.359375 16.878907c-13.433594 12.300781-25.578125 25.945312-36.238281 40.71875-3.050781-6.042969-6.472657-11.894531-10.242188-17.519531 9.265625-10.398438 19.0625-20.304688 29.363281-29.679688 6.957032-6.398438 11.757813-10.398438 11.757813-10.398438zm0 0"/><path d="m200.046875 371.847656c-2.160156 2.878906-4.320313 5.597656-6.558594 8.238282-2.71875-7.359376-5.359375-14.878907-7.679687-21.839844 3.679687-5.441406 7.117187-10.960938 10.398437-16.398438 10.347657-17.378906 19.644531-35.355468 27.839844-53.839844 0 0 6.960937 6 16.800781 15.4375-4.800781 10-12 23.921876-20.640625 38.402344-6.152343 10.367188-12.882812 20.382813-20.160156 30zm0 0"/><path d="m247.488281 469.765625c1.519531.398437 3.039063.800781 4.558594 1.039063-9.46875 1.898437-19.253906 1.542968-28.558594-1.039063-10.03125-2.609375-19.246093-7.699219-26.800781-14.800781 4.667969-5.496094 8.03125-11.976563 9.839844-18.957032 8.074218 16.6875 23.035156 29.019532 40.960937 33.757813zm0 0"/><path d="m355.886719 470.484375c-3.859375 1.03125-7.84375 1.542969-11.839844 1.523437-14.125-.015624-27.527344-6.246093-36.640625-17.042968 5.882812-5.363282 10.6875-11.796875 14.160156-18.957032 4.390625 16.835938 17.503906 30.011719 34.320313 34.476563zm0 0"/><path d="m326.046875 381.367188c-2.359375-6.503907-5.476563-12.703126-9.277344-18.480469 7.945313-10.71875 14.429688-22.449219 19.277344-34.878907 3.871094 2.019532 7.636719 4.234376 11.28125 6.636719h.078125c2.546875 1.652344 4.976562 3.46875 7.28125 5.441407-7.777344 14.90625-17.398438 28.777343-28.640625 41.28125zm0 0"/><path d="m435.96875 470.484375c-3.890625 1.039063-7.898438 1.550781-11.921875 1.523437-10.074219.007813-19.898437-3.15625-28.078125-9.042968 4.761719-3.375 8.859375-7.609375 12.078125-12.480469 6.539063 9.867187 16.476563 16.984375 27.921875 20zm0 0"/><path d="m459.488281 330.886719c-18.917969 17.210937-36.046875 36.296875-51.121093 56.960937-1.695313-7.257812-4.359376-14.253906-7.917969-20.800781 17.429687-19.429687 35.996093-37.808594 55.597656-55.039063 0 0 1.441406 7.519532 3.441406 18.878907zm0 0"/></g><path d="m461.335938 296.804688-10.535157 9.175781c-22.832031 19.914062-44.128906 41.519531-63.714843 64.632812-4.613282-10.652343-11.058594-20.414062-19.039063-28.847656v-61.757813c7.589844-3.128906 14.773437-7.160156 21.402344-12 9.828125 7.828126 22.035156 12.058594 34.597656 12 25.351563.019532 47.554687-16.992187 54.132813-41.476562 6.574218-24.484375-4.117188-50.332031-26.066407-63.011719 7.636719-22.105469 4.0625-46.539062-9.582031-65.53125-13.648438-18.992187-35.667969-30.171875-59.050781-29.980469-3.296875-22.910156-20.34375-41.429687-42.902344-46.609374-22.554687-5.175782-45.972656 4.054687-58.929687 23.230468-4.597657-.59375-9.238282-.757812-13.863282-.488281-13.273437-20.039063-35.699218-32.105469-59.738281-32.132813-3.210937-.003906-6.417969.203126-9.597656.621094-12.96875-19.132812-36.363281-28.335937-58.894531-23.160156-22.527344 5.175781-39.5625 23.660156-42.882813 46.539062-23.394531-.207031-45.429687 10.964844-59.089844 29.957032-13.660156 18.996094-17.238281 43.441406-9.597656 65.554687-21.953125 12.679688-32.644531 38.527344-26.066406 63.011719 6.574219 24.484375 28.777343 41.496094 54.128906 41.476562 12.566406.066407 24.78125-4.167968 34.609375-12 8.953125 6.480469 18.871094 11.515626 29.390625 14.910157v95.832031c-7.742187 7.621094-15.0625 15.660156-21.917969 24.085938-10.710937-17.011719-22.796875-33.125-36.128906-48.175782l-6.753906-7.542968-5.757813 8.34375c-5.082031 7.328124-49.441406 72.386718-49.441406 100.546874.015625 22.746094 13.789063 43.222657 34.851563 51.8125 21.0625 8.589844 45.230468 3.585938 61.148437-12.664062 12.082031 12.371094 29.207031 18.453125 46.382813 16.484375 17.179687-1.96875 32.480468-11.773437 41.449218-26.554687 13.691406 16.984374 34.335938 26.859374 56.152344 26.859374s42.460938-9.875 56.152344-26.859374c8.984375 14.773437 24.289062 24.566406 41.46875 26.535156 17.175781 1.96875 34.300781-4.105469 46.394531-16.464844 15.921875 16.25 40.085937 21.253906 61.148437 12.664062 21.0625-8.589843 34.835938-29.066406 34.851563-51.8125 0-26.90625-15.480469-109.953124-16.136719-113.472656zm-293.289063 54.921874c-4.855469-14.570312-8.289063-25.863281-8.34375-26.039062l-3.496094-11.554688-9.289062 7.730469s-4.398438 3.671875-10.871094 9.597657v-123.453126h32zm16-100.929687c3.199219-1.03125 6.402344-2.214844 9.511719-3.574219 15.539062 23.207032 45.8125 31.394532 70.929687 19.183594 11.710938 8.945312 25.199219 15.28125 39.558594 18.582031v81.289063c-4.300781-7.75-9.21875-15.144532-14.703125-22.113282-18.175781-22.457031-38.28125-43.277343-60.089844-62.230468l-8.261718-7.097656-4.296876 9.96875c-8.066406 18.160156-17.203124 35.828124-27.359374 52.90625-1.769532 2.957031-3.527344 5.65625-5.289063 8.429687zm168 77.34375c-.101563-.070313-.207031-.160156-.3125-.222656l-2.085937-1.273438c-5.855469-3.695312-9.855469-5.703125-10.046876-5.796875l-8.25-4.121094-2.910156 8.75c-2.296875 6.050782-5.105468 11.894532-8.394531 17.464844v-94.933594h32zm-68.109375-254.886719 5.917969 1.296875 2.847656-5.335937c8.648437-16.332032 27.359375-24.609375 45.261719-20.03125s30.335937 20.824218 30.082031 39.300781v9.027344l8.960937-1.082031c2.335938-.285157 4.6875-.429688 7.039063-.421876 19.203125-.003906 37.066406 9.835938 47.332031 26.0625 10.265625 16.230469 11.5 36.585938 3.269532 53.9375l-3.617188 7.695313 7.894531 3.132813c17.851563 7.101562 28.132813 25.882812 24.496094 44.742187-3.636719 18.863281-20.167969 32.472656-39.375 32.429687-10.738281.070313-21.035156-4.269531-28.488281-12l-5.191406-5.386718-5.71875 4.800781c-5.097657 4.269531-10.667969 7.9375-16.601563 10.9375v-30.351563h-64v36.527344c-12.339844-3.425781-23.773437-9.523437-33.488281-17.867187l-4.503906-3.886719-5.023438 3.199219c-6.277344 3.96875-13.558594 6.058593-20.984375 6.027343-12.679687.007813-24.601563-6.03125-32.09375-16.257812 2.628906-1.679688 5.191406-3.464844 7.664063-5.375 7.605468 3.722656 15.960937 5.648438 24.429687 5.632812 25.324219.003907 47.5-16.980468 54.089844-41.429687 6.589843-24.449219-4.046875-50.277344-25.945313-62.996094 12.449219-18.726562 15.277344-42.246093 7.625-63.390625 2.726563.152344 5.441406.507813 8.121094 1.0625zm-194.203125 141.328125-5.199219 5.390625c-7.445312 7.746094-17.742187 12.097656-28.488281 12.035156-19.175781.007813-35.660156-13.597656-39.292969-32.425781-3.632812-18.828125 6.609375-37.585937 24.414063-44.710937l7.894531-3.136719-3.613281-7.726563c-8.230469-17.351562-6.996094-37.707031 3.265625-53.9375 10.265625-16.226562 28.128906-26.066406 47.332031-26.0625 2.355469-.007812 4.707031.136719 7.039063.421876l8.960937.609374v-9.03125c-.027344-18.386718 12.480469-34.425781 30.320313-38.875 17.839843-4.449218 36.414062 3.835938 45.023437 20.082032l2.847656 5.335937 5.921875-1.296875c16.550782-3.539062 33.816406.574219 46.988282 11.199219 13.175781 10.625 20.855468 26.628906 20.898437 43.554687.027344 13.765626-5.054687 27.050782-14.261719 37.285157l-8.089844 8.976562 11.425782 3.9375c18.453125 6.386719 29.597656 25.167969 26.363281 44.425781-3.238281 19.261719-19.90625 33.367188-39.4375 33.375-7.425781.03125-14.707031-2.0625-20.984375-6.035156l-5.03125-3.199218-4.503906 3.914062c-5.015625 4.351562-10.519532 8.109375-16.398438 11.199219-2.949218 1.539062-5.980468 2.910156-9.082031 4.109375v-41.988282h-64v41.988282c-8.933594-3.484375-17.242187-8.410156-24.589844-14.574219zm334.3125 249.425781c-13.417969.011719-25.941406-6.726562-33.328125-17.929687l-6.671875-10.070313-6.679687 10.085938c-8.722657 13.164062-24.375 19.960938-39.949219 17.351562-15.574219-2.609374-28.15625-14.136718-32.113281-29.421874l-5.449219-21.015626-9.488281 19.527344c-7.070313 14.671875-20.234376 25.496094-36 29.597656-9.453126 2.597657-19.4375 2.578126-28.878907-.054687-15.679687-4.121094-28.761719-14.90625-35.792969-29.511719l-9.488281-19.527344-5.449219 21.015626c-4.59375 17.621093-20.496093 29.929687-38.710937 29.953124-6.554687-.007812-13.007813-1.636718-18.78125-4.738281-5.859375-3.132812-10.851563-7.667969-14.53125-13.199219l-6.6875-10.0625-6.664063 10.09375c-9.75 14.703126-27.980468 21.28125-44.875 16.191407-16.890624-5.089844-28.457031-20.644531-28.460937-38.285157 0-15.675781 23.023437-55.875 40.800781-82.816406 12.6875 14.8125 23.808594 30.898438 33.183594 48l6.152344 12.335938 7.664062-11.449219c12.28125-16.714844 26.324219-32.058594 41.886719-45.769531l2.402344-2.167969c3.285156 10.304687 8.421875 25.898437 13.894531 40.730469l4.753906 12.847656 8.855469-10.449219c10.210937-12.332031 19.402344-25.472656 27.480469-39.296875 10.628906-17.734375 18.957031-34.511718 23.765625-44.734375 17.988281 16.214844 34.652343 33.839844 49.839843 52.703125 7.449219 8.988282 13.429688 19.097656 17.722657 29.953125l4.382812 13.152344 9.191407-10.402344c12.800781-14.164062 23.535156-30.066406 31.878906-47.238281.960937.582031 1.96875 1.222656 3.050781 1.917969l1.4375.90625c16.113281 11.386719 27.542969 28.234375 32.167969 47.414062l4.257812 18.191407 10.230469-15.628907c14.066406-21.480469 43.777344-50.050781 59.671875-64.671875 6.226562 31.882813 10.675781 64.089844 13.328125 96.472656-.027344 22.078126-17.917969 39.972657-40 40zm0 0"/></svg>