<svg height="480pt" viewBox="-56 0 480 480" width="480pt" xmlns="http://www.w3.org/2000/svg"><path d="m267.3125 0h-267.3125v480h368v-379.3125zm4.6875 27.3125 68.6875 68.6875h-68.6875zm-256 436.6875v-448h240v96h96v352zm0 0"/><path d="m224 128h-176v-80h176zm-160-16h144v-48h-144zm0 0"/><path d="m320 352h-272v-80h272zm-256-16h240v-48h-240zm0 0"/><path d="m48 160h272v16h-272zm0 0"/><path d="m48 192h272v16h-272zm0 0"/><path d="m48 224h272v16h-272zm0 0"/><path d="m48 384h272v16h-272zm0 0"/><path d="m48 416h272v16h-272zm0 0"/></svg>